# xmcd
#
# Track frame offsets: 
#        150
#        20200
#        38036
#        54709
#        71709
#        91577
#        106740
#        121897
#        136696
#        154127
#        172249
#
# Disc length: 2460 seconds
#
# Revision: 0
# Processed by: cddbd v1.5.2PL0 Copyright (c) Steve Scherf et al.
# Submitted via: ExactAudioCopyFreeDBPlugin 1.0
#
DISCID=8f099a0b
DTITLE=Martha High - Singing For The Good Times
DYEAR=2016
DGENRE=R&B
TTITLE0=Always Worth The Pain
TTITLE1=I'm A Woman
TTITLE2=Can't Hold On
TTITLE3=Fire Shut Up In My Bones
TTITLE4=Lean On Me
TTITLE5=Lovelight
TTITLE6=The Hard Way
TTITLE7=The Hardest Working Woman In Town
TTITLE8=Singing This Song (For You)
TTITLE9=You Baby
TTITLE10=For The Good Times
EXTD=
EXTT0=
EXTT1=
EXTT2=
EXTT3=
EXTT4=
EXTT5=
EXTT6=
EXTT7=
EXTT8=
EXTT9=
EXTT10=
PLAYORDER=
